<?xml version="1.0" encoding="UTF-8" standalone="no"?>
<!-- Generator: Adobe Illustrator 10.0, SVG Export Plug-In . SVG Version: 3.0.0 Build 76)  -->

<svg
   xmlns:dc="http://purl.org/dc/elements/1.1/"
   xmlns:cc="http://creativecommons.org/ns#"
   xmlns:rdf="http://www.w3.org/1999/02/22-rdf-syntax-ns#"
   xmlns:svg="http://www.w3.org/2000/svg"
   xmlns="http://www.w3.org/2000/svg"
   xmlns:sodipodi="http://sodipodi.sourceforge.net/DTD/sodipodi-0.dtd"
   xmlns:inkscape="http://www.inkscape.org/namespaces/inkscape"
   width="414.997"
   height="250"
   viewBox="0 0 414.997 250"
   overflow="visible"
   enable-background="new 0 0 414.997 250"
   xml:space="preserve"
   id="svg2"
   version="1.1"
   inkscape:version="0.46+devel 22040"
   sodipodi:docname="Lens6b-fr.svg"><title
   id="title2869">Doublet achromatique</title><metadata
   id="metadata103"><rdf:RDF><cc:Work
       rdf:about=""><dc:format>image/svg+xml</dc:format><dc:type
         rdf:resource="http://purl.org/dc/dcmitype/StillImage" /><dc:title>Doublet achromatique</dc:title><dc:date>28/05/2010</dc:date><dc:creator><cc:Agent><dc:title>Eric Bajart</dc:title></cc:Agent></dc:creator><dc:publisher><cc:Agent><dc:title>Inkscape</dc:title></cc:Agent></dc:publisher><dc:source>http://en.wikipedia.org/wiki/File:Lens6b.svg</dc:source><dc:language>Français</dc:language><dc:description>Un doublet achromatique présente la même distance focale pour les lumières rouges et bleues</dc:description><cc:license
         rdf:resource="http://creativecommons.org/licenses/by-sa/3.0/" /></cc:Work><cc:License
       rdf:about="http://creativecommons.org/licenses/by-sa/3.0/"><cc:permits
         rdf:resource="http://creativecommons.org/ns#Reproduction" /><cc:permits
         rdf:resource="http://creativecommons.org/ns#Distribution" /><cc:requires
         rdf:resource="http://creativecommons.org/ns#Notice" /><cc:requires
         rdf:resource="http://creativecommons.org/ns#Attribution" /><cc:permits
         rdf:resource="http://creativecommons.org/ns#DerivativeWorks" /><cc:requires
         rdf:resource="http://creativecommons.org/ns#ShareAlike" /></cc:License></rdf:RDF></metadata><defs
   id="defs101"><inkscape:perspective
     sodipodi:type="inkscape:persp3d"
     inkscape:vp_x="0 : 125 : 1"
     inkscape:vp_y="0 : 1000 : 0"
     inkscape:vp_z="414.99701 : 125 : 1"
     inkscape:persp3d-origin="207.4985 : 83.333333 : 1"
     id="perspective63" /></defs><sodipodi:namedview
   pagecolor="#ffffff"
   bordercolor="#666666"
   borderopacity="1"
   objecttolerance="10"
   gridtolerance="10"
   guidetolerance="10"
   inkscape:pageopacity="0"
   inkscape:pageshadow="2"
   inkscape:window-width="1600"
   inkscape:window-height="796"
   id="namedview99"
   showgrid="false"
   inkscape:zoom="2.4445464"
   inkscape:cx="94.410201"
   inkscape:cy="190.46424"
   inkscape:window-x="1192"
   inkscape:window-y="1182"
   inkscape:window-maximized="1"
   inkscape:current-layer="layer2" />
	<path
   style="fill:#fffcf3"
   id="path5"
   d="M 414.997,250 H 0 V 0 h 414.997 v 250 z" /><path
   style="fill:#ffffff;stroke:#000000;stroke-width:0.5;stroke-dasharray:6, 3"
   id="path7"
   d="M 29.036,125.31 H 399.362" /><path
   style="opacity:0.75;fill:#cce2ef;stroke:#000000;stroke-width:0.75"
   id="path9"
   d="m 115.498,125.31 c 0,29.423 4.319,55.556 12.332,82.373 h 2.781 c 7.582,-26.147 11.666,-53.781 11.666,-82.373 0,-28.593 -4.088,-56.225 -11.674,-82.372 h -3.087 c -7.164,25.474 -12.018,54.607 -12.018,82.372 z" /><path
   style="fill:none;stroke:#ff0000"
   id="path11"
   d="M 545.961,125.242" /><path
   style="fill:none;stroke:#ff0000"
   id="path13"
   d="M 262.336,124.953" /><path
   style="opacity:0.75;fill:#a1bfdc;stroke:#000000;stroke-width:0.75"
   id="path75"
   d="m 157.191,207.682 h -26.58 c 7.582,-26.147 11.666,-53.781 11.666,-82.373 0,-28.593 -4.088,-56.225 -11.674,-82.372 h 25.258 l 1.33,164.745 z" /><path
   style="fill:#ffffff;stroke:#000000;stroke-width:0.25"
   id="path77"
   d="M 141.879,27.051 V 226.977" /><path
   style="fill:none;stroke:#ff0000"
   id="path79"
   d="m 59.736,198.083 h 65.378 l 9.112,-4.095 22.771,-12.095 176.654,-92.165" /><path
   style="fill:none;stroke:#008837"
   id="path81"
   d="m 59.736,197.362 h 65.187 l 10.085,-6.735 21.962,-13.401 175.096,-89.666" /><path
   style="fill:none;stroke:#0a55a3"
   id="path83"
   d="m 59.736,196.642 h 64.998 l 11.321,-10.831 20.887,-12.418 177.919,-79.333" /><path
   style="fill:none;stroke:#ff0000"
   id="path85"
   d="m 59.736,52.537 h 65.378 l 9.112,4.095 22.771,12.095 176.654,92.165" /><path
   style="fill:none;stroke:#008837"
   id="path87"
   d="m 59.736,53.257 h 65.187 l 10.085,6.735 21.962,13.401 175.096,89.667" /><path
   style="fill:none;stroke:#0a55a3"
   id="path89"
   d="m 59.736,53.977 h 64.998 l 11.321,10.831 20.887,12.418 177.919,79.333" /><path
   style="fill:none;stroke:#000000"
   id="path91"
   d="M 129.146,47.655 90.361,20.06" /><path
   id="path93"
   d="m 130.226,47.655 c 0,0.596 -0.483,1.08 -1.08,1.08 -0.597,0 -1.08,-0.484 -1.08,-1.08 0,-0.597 0.483,-1.08 1.08,-1.08 0.597,0 1.08,0.483 1.08,1.08 z" /><path
   style="fill:none;stroke:#000000"
   id="path95"
   d="M 151.627,47.471 187.88,19.54" /><path
   id="path97"
   d="m 150.863,48.234 c -0.421,-0.421 -0.422,-1.105 0,-1.527 0.422,-0.422 1.106,-0.421 1.528,0 0.422,0.422 0.422,1.105 0,1.527 -0.422,0.423 -1.106,0.423 -1.528,0 z" />
<g
   inkscape:groupmode="layer"
   id="layer1"
   inkscape:label="Modifiable text"
   style="display:none"><text
   xml:space="preserve"
   style="font-size:18px;font-style:italic;font-variant:normal;font-weight:normal;font-stretch:normal;text-align:start;line-height:125%;writing-mode:lr-tb;text-anchor:start;fill:#000000;fill-opacity:1;stroke:none;font-family:Times New Roman;-inkscape-font-specification:Times New Roman Italic"
   x="164.85677"
   y="227.50095"
   id="text2959"
   sodipodi:linespacing="125%"><tspan
     sodipodi:role="line"
     id="tspan2961"
     x="164.85677"
     y="227.50095">Doublet achromatique</tspan></text>


<text
   xml:space="preserve"
   style="font-size:18px;font-style:italic;font-variant:normal;font-weight:normal;font-stretch:normal;text-align:start;line-height:125%;writing-mode:lr-tb;text-anchor:start;fill:#000000;fill-opacity:1;stroke:none;font-family:Times New Roman;-inkscape-font-specification:Times New Roman Italic"
   x="52.942928"
   y="17.161325"
   id="text2959-1"
   sodipodi:linespacing="125%"><tspan
     sodipodi:role="line"
     id="tspan2961-7"
     x="52.942928"
     y="17.161325">Crown</tspan></text>


<text
   xml:space="preserve"
   style="font-size:18px;font-style:italic;font-variant:normal;font-weight:normal;font-stretch:normal;text-align:start;line-height:125%;writing-mode:lr-tb;text-anchor:start;fill:#000000;fill-opacity:1;stroke:none;font-family:Times New Roman;-inkscape-font-specification:Times New Roman Italic"
   x="180.18282"
   y="17.468943"
   id="text2959-1-4"
   sodipodi:linespacing="125%"><tspan
     sodipodi:role="line"
     id="tspan2961-7-0"
     x="180.18282"
     y="17.468943">Flint</tspan></text>


</g><g
   inkscape:groupmode="layer"
   id="layer2"
   inkscape:label="Vectorized text"
   style="display:inline"><g
     style="font-size:18px;font-style:italic;font-variant:normal;font-weight:normal;font-stretch:normal;text-align:start;line-height:125%;writing-mode:lr-tb;text-anchor:start;fill:#000000;fill-opacity:1;stroke:none;display:inline;font-family:Times New Roman;-inkscape-font-specification:Times New Roman Italic"
     id="text2959-9"><path
       d="m 170.7959,214.38937 0.10547,-0.32519 3.80566,0 c 1.61132,1e-5 2.80517,0.18458 3.58154,0.55371 0.77636,0.36915 1.39599,0.95069 1.85889,1.74463 0.46288,0.79395 0.69432,1.64503 0.69434,2.55322 -2e-5,0.7793 -0.13332,1.53663 -0.39991,2.27197 -0.26661,0.73536 -0.56837,1.32423 -0.90527,1.76661 -0.33692,0.44238 -0.85401,0.93017 -1.55127,1.46337 -0.69727,0.53321 -1.45313,0.92725 -2.26758,1.18213 -0.81446,0.25489 -1.83106,0.38233 -3.0498,0.38233 l -5.04492,0 0.11425,-0.3252 c 0.4629,-0.0117 0.77344,-0.0527 0.93165,-0.12304 0.23437,-0.0996 0.40722,-0.23438 0.51855,-0.4043 0.16992,-0.24609 0.36035,-0.74121 0.57129,-1.48535 l 2.10937,-7.20703 c 0.16406,-0.56835 0.24609,-1.01367 0.2461,-1.33594 -1e-5,-0.22851 -0.0762,-0.40429 -0.22852,-0.52735 -0.15235,-0.12303 -0.45117,-0.18455 -0.89648,-0.18457 z m 3.12012,0.33399 -2.58399,8.9209 c -0.19336,0.66797 -0.29004,1.08105 -0.29004,1.23925 0,0.0938 0.0308,0.18458 0.0923,0.27247 0.0615,0.0879 0.14501,0.14648 0.25049,0.17578 0.15234,0.0527 0.39843,0.0791 0.73828,0.0791 0.91991,0 1.77392,-0.0952 2.56201,-0.28565 0.78808,-0.19043 1.43407,-0.47314 1.93799,-0.84814 0.71483,-0.54492 1.28612,-1.29492 1.71386,-2.25 0.42773,-0.95507 0.64159,-2.04199 0.64161,-3.26074 -2e-5,-1.37695 -0.32814,-2.40087 -0.98438,-3.07178 -0.65626,-0.67089 -1.61427,-1.00634 -2.87402,-1.00635 -0.31056,1e-5 -0.71192,0.0117 -1.2041,0.0352 z"
       style=""
       id="path3052" /><path
       d="m 189.49023,220.77902 c 0,0.87891 -0.23291,1.74903 -0.69873,2.61035 -0.46582,0.86133 -1.11475,1.54395 -1.94677,2.04786 -0.83204,0.5039 -1.64063,0.75585 -2.42578,0.75585 -0.80274,0 -1.45753,-0.25634 -1.96436,-0.76904 -0.50684,-0.51269 -0.76025,-1.17627 -0.76025,-1.99072 0,-0.86133 0.24755,-1.72558 0.74267,-2.59277 0.49512,-0.86719 1.15723,-1.55273 1.98633,-2.05664 0.8291,-0.5039 1.63037,-0.75586 2.40381,-0.75586 0.77343,0 1.41064,0.25489 1.91162,0.76464 0.50097,0.50978 0.75146,1.17189 0.75146,1.98633 z m -1.45898,-0.60644 c -1e-5,-0.54492 -0.13331,-0.9624 -0.3999,-1.25244 -0.26661,-0.29004 -0.61085,-0.43506 -1.03272,-0.43506 -0.86133,0 -1.65381,0.6167 -2.37744,1.85009 -0.72363,1.23341 -1.08545,2.45948 -1.08545,3.67823 0,0.55664 0.14063,0.98584 0.42188,1.28759 0.28124,0.30176 0.63574,0.45264 1.06347,0.45264 0.82617,0 1.60107,-0.61377 2.32471,-1.84131 0.72363,-1.22753 1.08544,-2.47411 1.08545,-3.73974 z"
       style=""
       id="path3054" /><path
       d="m 198.63965,218.23898 -1.5293,5.23828 c -0.22852,0.7793 -0.34278,1.27149 -0.34277,1.47657 -1e-5,0.10547 0.019,0.1831 0.0571,0.23291 0.0381,0.0498 0.0893,0.0747 0.15381,0.0747 0.0996,0 0.20946,-0.0454 0.32959,-0.13623 0.12011,-0.0908 0.42333,-0.45263 0.90966,-1.08545 l 0.26368,0.20215 c -0.4629,0.73243 -0.93751,1.27149 -1.42383,1.61719 -0.32228,0.22266 -0.63282,0.33398 -0.93164,0.33398 -0.22852,0 -0.40724,-0.0645 -0.53614,-0.19335 -0.12891,-0.12891 -0.19336,-0.2959 -0.19336,-0.50098 0,-0.19922 0.0381,-0.46289 0.11426,-0.79102 0.0937,-0.43359 0.36035,-1.37695 0.79981,-2.83007 -0.9961,1.63476 -1.8296,2.76269 -2.50049,3.38378 -0.6709,0.6211 -1.29346,0.93164 -1.86768,0.93164 -0.26953,0 -0.49805,-0.0937 -0.68554,-0.28125 -0.1875,-0.1875 -0.28125,-0.4248 -0.28125,-0.71191 0,-0.43945 0.1289,-1.11328 0.38671,-2.02148 l 0.76465,-2.71582 c 0.1875,-0.65039 0.28125,-1.05468 0.28125,-1.21289 0,-0.0703 -0.0249,-0.13037 -0.0747,-0.18018 -0.0498,-0.0498 -0.10401,-0.0747 -0.1626,-0.0747 -0.12305,1e-5 -0.2461,0.0439 -0.36914,0.13184 -0.12305,0.0879 -0.40137,0.41309 -0.83496,0.97558 l -0.27246,-0.19335 c 0.43945,-0.67969 0.90527,-1.18066 1.39746,-1.50293 0.37499,-0.25195 0.7207,-0.37793 1.03711,-0.37793 0.21679,0 0.39404,0.0688 0.53173,0.20654 0.1377,0.1377 0.20654,0.31495 0.20655,0.53174 -1e-5,0.31641 -0.11719,0.88184 -0.35157,1.69629 l -0.82617,2.83886 c -0.22851,0.77344 -0.34277,1.2627 -0.34277,1.46778 0,0.11133 0.0366,0.20068 0.10986,0.26806 0.0732,0.0674 0.17139,0.10108 0.29444,0.10108 0.19335,0 0.44531,-0.0967 0.75586,-0.29004 0.31054,-0.19336 0.72509,-0.62256 1.24365,-1.2876 0.51855,-0.66504 0.94628,-1.28906 1.2832,-1.87207 0.33691,-0.583 0.6958,-1.51025 1.07666,-2.78174 l 0.19336,-0.66797 z"
       style=""
       id="path3056" /><path
       d="m 204.36133,213.4841 -1.73145,6.07324 c 0.5625,-0.58593 1.05322,-0.98729 1.47217,-1.2041 0.41894,-0.21679 0.85693,-0.32519 1.31397,-0.32519 0.64452,0 1.17186,0.21387 1.58203,0.6416 0.41014,0.42774 0.61522,1.00782 0.61523,1.74023 -1e-5,0.94337 -0.26954,1.88233 -0.80859,2.8169 -0.53907,0.93457 -1.21583,1.66259 -2.03028,2.18408 -0.81445,0.52148 -1.61719,0.78222 -2.4082,0.78222 -0.88477,0 -1.79297,-0.33105 -2.72461,-0.99316 l 2.67188,-9.20215 c 0.20507,-0.70897 0.30761,-1.12499 0.30761,-1.24804 0,-0.15234 -0.0469,-0.26659 -0.14062,-0.34278 -0.13477,-0.10546 -0.33399,-0.15819 -0.59766,-0.1582 -0.12305,1e-5 -0.31055,0.0205 -0.5625,0.0615 l 0,-0.33398 z m -3.40137,11.8125 c 0.58594,0.32227 1.10156,0.4834 1.54688,0.4834 0.51562,0 1.05028,-0.18897 1.604,-0.5669 0.55371,-0.37792 1.03417,-1.01513 1.44141,-1.91162 0.40722,-0.89648 0.61083,-1.80175 0.61084,-2.71582 -1e-5,-0.53905 -0.13331,-0.96093 -0.39991,-1.26562 -0.2666,-0.30468 -0.58155,-0.45703 -0.94482,-0.45703 -0.54493,0 -1.07813,0.21827 -1.59961,0.65478 -0.52149,0.43653 -0.89356,1.04444 -1.11621,1.82373 z"
       style=""
       id="path3058" /><path
       d="m 213.51953,213.4841 -3.00586,10.45898 c -0.14648,0.52149 -0.21973,0.84083 -0.21972,0.95801 -1e-5,0.0879 0.0278,0.16114 0.0835,0.21973 0.0557,0.0586 0.12451,0.0879 0.20654,0.0879 0.11133,0 0.23145,-0.0498 0.36036,-0.14941 0.30468,-0.24024 0.62402,-0.61231 0.958,-1.11622 l 0.26368,0.27247 c -0.55665,0.78515 -1.06934,1.333 -1.53809,1.64355 -0.34571,0.22266 -0.67383,0.33398 -0.98438,0.33398 -0.22265,0 -0.40869,-0.0762 -0.5581,-0.22851 -0.14942,-0.15234 -0.22412,-0.32813 -0.22412,-0.52734 0,-0.21094 0.0937,-0.64453 0.28125,-1.30079 l 2.38183,-8.24414 c 0.19336,-0.67381 0.29004,-1.06053 0.29004,-1.16015 0,-0.14062 -0.0557,-0.25634 -0.16699,-0.34717 -0.11133,-0.0908 -0.28418,-0.13622 -0.51855,-0.13623 -0.13477,1e-5 -0.33985,0.0205 -0.61524,0.0615 l 0,-0.32519 z"
       style=""
       id="path3060" /><path
       d="m 215.30371,222.66867 c -0.041,0.29297 -0.0615,0.53614 -0.0615,0.72949 0,0.52149 0.18457,0.96534 0.55371,1.33155 0.36914,0.36621 0.81738,0.54931 1.34472,0.54931 0.42188,0 0.82764,-0.0864 1.21729,-0.25928 0.38964,-0.17285 0.96826,-0.55517 1.73584,-1.14697 l 0.18457,0.25489 c -1.38868,1.37695 -2.71289,2.06542 -3.97266,2.06542 -0.85547,0 -1.5,-0.26953 -1.93359,-0.80859 -0.43359,-0.53906 -0.65039,-1.13379 -0.65039,-1.78418 0,-0.87304 0.26953,-1.7666 0.80859,-2.68066 0.53906,-0.91406 1.21582,-1.62451 2.03028,-2.13135 0.81445,-0.50683 1.65234,-0.76025 2.51367,-0.76025 0.62109,0 1.08105,0.12598 1.37988,0.37793 0.29882,0.25196 0.44824,0.55078 0.44824,0.89648 0,0.48633 -0.19336,0.95215 -0.58007,1.39746 -0.50978,0.58008 -1.25978,1.04883 -2.25,1.40625 -0.65626,0.24024 -1.57911,0.42774 -2.76856,0.5625 z m 0.0615,-0.43066 c 0.86719,-0.0996 1.57324,-0.26953 2.11817,-0.50977 0.7207,-0.32226 1.26122,-0.70751 1.62158,-1.15576 0.36035,-0.44824 0.54052,-0.87451 0.54053,-1.27881 -1e-5,-0.24609 -0.0777,-0.4453 -0.23291,-0.59766 -0.15528,-0.15233 -0.37647,-0.2285 -0.66358,-0.22851 -0.59766,1e-5 -1.23193,0.31788 -1.90283,0.95361 -0.6709,0.63575 -1.16455,1.57471 -1.48096,2.8169 z"
       style=""
       id="path3062" /><path
       d="m 225.81543,215.84836 -0.68555,2.39062 1.37989,0 -0.14942,0.55371 -1.37109,0 -1.51172,5.18555 c -0.16407,0.55664 -0.2461,0.91699 -0.24609,1.08106 -1e-5,0.0996 0.0234,0.17578 0.0703,0.22851 0.0469,0.0527 0.10253,0.0791 0.16699,0.0791 0.14648,0 0.33984,-0.10254 0.58008,-0.30761 0.14062,-0.11719 0.4541,-0.47754 0.94043,-1.08106 l 0.29004,0.21973 c -0.53907,0.78515 -1.04883,1.33887 -1.5293,1.66113 -0.32813,0.22266 -0.65918,0.33398 -0.99316,0.33398 -0.25782,0 -0.46876,-0.0806 -0.63282,-0.24169 -0.16406,-0.16114 -0.24609,-0.36768 -0.24609,-0.61963 0,-0.31641 0.0937,-0.79981 0.28125,-1.4502 l 1.46777,-5.08887 -1.32715,0 0.0879,-0.34277 c 0.64452,-0.17577 1.18066,-0.43798 1.60839,-0.78662 0.42773,-0.34862 0.90527,-0.9536 1.43262,-1.81494 z"
       style=""
       id="path3064" /><path
       d="m 239.07812,218.02805 -1.71386,5.95898 -0.19336,0.7998 c -0.0176,0.0762 -0.0264,0.14063 -0.0264,0.19336 -1e-5,0.0937 0.0293,0.17579 0.0879,0.2461 0.0469,0.0527 0.10546,0.0791 0.17578,0.0791 0.0762,0 0.17578,-0.0469 0.29883,-0.14063 0.22851,-0.16992 0.5332,-0.52148 0.91406,-1.05468 l 0.29883,0.21093 c -0.4043,0.60938 -0.82032,1.07374 -1.24805,1.39307 -0.42774,0.31934 -0.82324,0.479 -1.18652,0.479 -0.25196,0 -0.44092,-0.063 -0.56689,-0.18896 -0.12598,-0.12598 -0.18897,-0.30908 -0.18897,-0.54932 0,-0.28711 0.0644,-0.66503 0.19336,-1.13379 l 0.18457,-0.65918 c -0.76758,1.00196 -1.47363,1.70215 -2.11816,2.10059 -0.4629,0.28711 -0.917,0.43066 -1.36231,0.43066 -0.42773,0 -0.79687,-0.17724 -1.10742,-0.53173 -0.31055,-0.3545 -0.46582,-0.84229 -0.46582,-1.46338 0,-0.93164 0.27979,-1.91455 0.83936,-2.94873 0.55956,-1.03418 1.27001,-1.86181 2.13134,-2.48291 0.67383,-0.49218 1.30957,-0.73828 1.90723,-0.73828 0.35742,0 0.65478,0.0937 0.89209,0.28125 0.2373,0.1875 0.41747,0.49805 0.54053,0.93164 l 0.3164,-1.00196 z m -3.1289,0.45703 c -0.37501,0 -0.77344,0.17579 -1.19531,0.52734 -0.59766,0.49805 -1.1294,1.23633 -1.59522,2.21484 -0.46582,0.97852 -0.69873,1.86329 -0.69873,2.6543 0,0.39844 0.0996,0.71338 0.29883,0.94483 0.19922,0.23144 0.42773,0.34716 0.68555,0.34716 0.63866,0 1.333,-0.47167 2.083,-1.41504 1.00195,-1.2539 1.50293,-2.54003 1.50293,-3.85839 0,-0.49804 -0.0967,-0.8584 -0.29004,-1.08106 -0.19336,-0.22265 -0.45703,-0.33398 -0.79101,-0.33398 z"
       style=""
       id="path3066" /><path
       d="m 246.58398,224.06613 c -0.60938,0.73242 -1.22461,1.27002 -1.8457,1.61279 -0.6211,0.34278 -1.27735,0.51416 -1.96875,0.51416 -0.83203,0 -1.48096,-0.23437 -1.94678,-0.70312 -0.46582,-0.46875 -0.69873,-1.09863 -0.69873,-1.88965 0,-0.89648 0.25049,-1.77831 0.75147,-2.64551 0.50097,-0.86718 1.1748,-1.57177 2.02148,-2.11377 0.84668,-0.54198 1.67724,-0.81298 2.4917,-0.81298 0.63867,0 1.11621,0.1333 1.43262,0.3999 0.3164,0.26661 0.4746,0.59327 0.47461,0.97998 -10e-6,0.36329 -0.11134,0.67383 -0.33399,0.93164 -0.16407,0.19922 -0.36621,0.29883 -0.60644,0.29883 -0.18165,0 -0.33253,-0.0586 -0.45264,-0.17578 -0.12012,-0.11719 -0.18018,-0.26367 -0.18017,-0.43946 -1e-5,-0.11132 0.022,-0.21386 0.0659,-0.30761 0.0439,-0.0937 0.13476,-0.20654 0.27247,-0.33838 0.13768,-0.13183 0.22118,-0.22705 0.25048,-0.28565 0.0293,-0.0586 0.0439,-0.12011 0.0439,-0.18457 -1e-5,-0.12304 -0.0557,-0.22558 -0.16699,-0.30762 -0.16993,-0.11718 -0.41017,-0.17577 -0.72071,-0.17578 -0.57422,1e-5 -1.14258,0.20216 -1.70507,0.60645 -0.56251,0.4043 -1.04298,0.97852 -1.44141,1.72266 -0.48047,0.90234 -0.72071,1.80469 -0.7207,2.70703 -1e-5,0.59765 0.16992,1.0708 0.50976,1.41943 0.33984,0.34863 0.80273,0.52295 1.38867,0.52295 0.45117,0 0.89795,-0.11279 1.34034,-0.33838 0.44237,-0.22558 0.93895,-0.63428 1.48974,-1.22607 z"
       style=""
       id="path3068" /><path
       d="m 252.89453,213.4841 -2.46973,8.53418 c 1.06641,-1.60546 1.89844,-2.67187 2.4961,-3.19922 0.59765,-0.52733 1.16894,-0.79101 1.71387,-0.79101 0.28124,0 0.51561,0.0967 0.70312,0.29003 0.18749,0.19337 0.28124,0.45118 0.28125,0.77344 -10e-6,0.38673 -0.082,0.85548 -0.24609,1.40625 l -1.07227,3.68262 c -0.13477,0.44531 -0.20215,0.69141 -0.20215,0.73828 0,0.082 0.0249,0.14942 0.0747,0.20215 0.0498,0.0527 0.10693,0.0791 0.17139,0.0791 0.0762,0 0.16405,-0.0381 0.26367,-0.11426 0.33398,-0.25781 0.66503,-0.61523 0.99316,-1.07226 l 0.27246,0.16699 c -0.19922,0.31055 -0.47608,0.65186 -0.83056,1.02393 -0.3545,0.37207 -0.65919,0.62988 -0.91407,0.77343 -0.25488,0.14356 -0.48194,0.21533 -0.68115,0.21533 -0.2168,0 -0.39405,-0.0688 -0.53174,-0.20654 -0.1377,-0.13769 -0.20654,-0.31494 -0.20654,-0.53174 0,-0.25781 0.10253,-0.73828 0.30762,-1.4414 l 1.01074,-3.51563 c 0.1289,-0.43944 0.19335,-0.78515 0.19336,-1.03711 -1e-5,-0.11718 -0.0366,-0.21093 -0.10986,-0.28125 -0.0733,-0.0703 -0.16847,-0.10546 -0.28565,-0.10547 -0.16993,1e-5 -0.36329,0.0645 -0.58008,0.19336 -0.39844,0.2461 -0.8584,0.70313 -1.37988,1.3711 -0.14063,0.18164 -0.60938,0.91406 -1.40625,2.19726 -0.2461,0.41016 -0.44824,0.8584 -0.60644,1.34473 l -0.5625,1.80176 -1.31836,0 2.8916,-10.05469 0.30761,-1.08984 c 0,-0.15234 -0.063,-0.2871 -0.18896,-0.4043 -0.12598,-0.11718 -0.27979,-0.17577 -0.46143,-0.17578 -0.10547,1e-5 -0.2666,0.0176 -0.48339,0.0527 l -0.18457,0.0264 0,-0.34277 z"
       style=""
       id="path3070" /><path
       d="m 257.55273,218.52023 3.03223,-0.49218 -1.26562,4.27148 c 1.02538,-1.75195 1.95702,-2.97656 2.79492,-3.67383 0.4746,-0.39843 0.86132,-0.59765 1.16015,-0.59765 0.19336,0 0.3457,0.0571 0.45704,0.17138 0.11132,0.11427 0.16698,0.2798 0.16699,0.49658 -10e-6,0.38673 -0.0996,0.75587 -0.29883,1.10743 -0.14063,0.26367 -0.34278,0.39551 -0.60645,0.3955 -0.13477,1e-5 -0.25049,-0.0439 -0.34716,-0.13183 -0.0967,-0.0879 -0.15675,-0.22265 -0.18018,-0.4043 -0.0117,-0.11132 -0.0381,-0.18456 -0.0791,-0.21973 -0.0469,-0.0469 -0.10255,-0.0703 -0.16699,-0.0703 -0.0996,1e-5 -0.19337,0.0234 -0.28125,0.0703 -0.15235,0.082 -0.3838,0.31056 -0.69434,0.68555 -0.48633,0.57423 -1.01367,1.31837 -1.58203,2.23242 -0.2461,0.38673 -0.45703,0.82325 -0.63281,1.30957 -0.2461,0.66797 -0.38672,1.06934 -0.42188,1.20411 l -0.28125,1.10742 -1.34472,0 1.62597,-5.45801 c 0.1875,-0.63281 0.28125,-1.08398 0.28125,-1.35352 0,-0.10546 -0.0439,-0.19335 -0.13183,-0.26367 -0.11719,-0.0937 -0.27247,-0.14062 -0.46582,-0.14062 -0.12305,0 -0.34864,0.0264 -0.67676,0.0791 z"
       style=""
       id="path3072" /><path
       d="m 271.93164,220.77902 c -1e-5,0.87891 -0.23292,1.74903 -0.69873,2.61035 -0.46583,0.86133 -1.11475,1.54395 -1.94678,2.04786 -0.83203,0.5039 -1.64063,0.75585 -2.42578,0.75585 -0.80274,0 -1.45752,-0.25634 -1.96435,-0.76904 -0.50684,-0.51269 -0.76026,-1.17627 -0.76026,-1.99072 0,-0.86133 0.24756,-1.72558 0.74268,-2.59277 0.49511,-0.86719 1.15722,-1.55273 1.98633,-2.05664 0.82909,-0.5039 1.63036,-0.75586 2.4038,-0.75586 0.77344,0 1.41064,0.25489 1.91163,0.76464 0.50096,0.50978 0.75145,1.17189 0.75146,1.98633 z m -1.45898,-0.60644 c -1e-5,-0.54492 -0.13331,-0.9624 -0.39991,-1.25244 -0.2666,-0.29004 -0.61084,-0.43506 -1.03271,-0.43506 -0.86133,0 -1.65381,0.6167 -2.37744,1.85009 -0.72364,1.23341 -1.08545,2.45948 -1.08545,3.67823 0,0.55664 0.14062,0.98584 0.42187,1.28759 0.28125,0.30176 0.63574,0.45264 1.06348,0.45264 0.82617,0 1.60107,-0.61377 2.32471,-1.84131 0.72362,-1.22753 1.08544,-2.47411 1.08545,-3.73974 z"
       style=""
       id="path3074" /><path
       d="m 276.51074,218.02805 -1.14258,3.96386 c 0.50977,-0.93163 0.94336,-1.63183 1.30079,-2.10058 0.55663,-0.72656 1.09862,-1.2539 1.62597,-1.58203 0.31054,-0.1875 0.63574,-0.28125 0.97559,-0.28125 0.29296,0 0.53612,0.0937 0.72949,0.28125 0.19335,0.1875 0.29003,0.42774 0.29004,0.7207 -10e-6,0.28711 -0.0674,0.66211 -0.20215,1.125 l -0.62402,2.23242 c 0.95507,-1.7871 1.86034,-3.04101 2.71582,-3.76172 0.4746,-0.39843 0.94335,-0.59765 1.40625,-0.59765 0.26952,0 0.49071,0.0923 0.66357,0.27685 0.17284,0.18458 0.25927,0.47022 0.25928,0.85693 -10e-6,0.33985 -0.0528,0.70021 -0.1582,1.08106 l -0.9668,3.41894 c -0.21095,0.74415 -0.31642,1.15723 -0.31641,1.23926 -1e-5,0.082 0.0264,0.15235 0.0791,0.21094 0.0351,0.041 0.082,0.0615 0.14063,0.0615 0.0586,0 0.16112,-0.0557 0.30762,-0.16699 0.33397,-0.25781 0.64745,-0.59765 0.94043,-1.01953 l 0.29004,0.18457 c -0.1465,0.23438 -0.40578,0.55664 -0.77784,0.9668 -0.37208,0.41015 -0.68995,0.68847 -0.95361,0.83496 -0.26368,0.14648 -0.50685,0.21972 -0.72949,0.21972 -0.20509,0 -0.37648,-0.0703 -0.51416,-0.21093 -0.13771,-0.14063 -0.20655,-0.31348 -0.20655,-0.51856 0,-0.28125 0.12011,-0.84668 0.36036,-1.69629 l 0.7998,-2.82129 c 0.18163,-0.65038 0.27831,-1.01073 0.29004,-1.08105 0.0176,-0.11132 0.0264,-0.21972 0.0264,-0.3252 -10e-6,-0.14647 -0.0322,-0.26073 -0.0967,-0.34277 -0.0703,-0.082 -0.14943,-0.12304 -0.23731,-0.12305 -0.2461,1e-5 -0.50684,0.12599 -0.78222,0.37793 -0.80861,0.74415 -1.56446,1.78712 -2.26758,3.12891 -0.4629,0.88477 -0.89649,2.01856 -1.30078,3.40137 l -1.32715,0 1.50293,-5.31739 c 0.16405,-0.57421 0.24609,-0.958 0.24609,-1.15136 0,-0.1582 -0.0322,-0.27539 -0.0967,-0.35157 -0.0645,-0.0762 -0.14356,-0.11425 -0.2373,-0.11425 -0.19337,0 -0.39845,0.0703 -0.61524,0.21093 -0.35156,0.22853 -0.8042,0.71778 -1.35791,1.46778 -0.55371,0.75 -0.98291,1.46778 -1.28759,2.15332 -0.14649,0.32227 -0.49512,1.35645 -1.0459,3.10254 l -1.30078,0 1.62597,-5.69532 0.21094,-0.73828 c 0.041,-0.11132 0.0615,-0.19335 0.0615,-0.24609 0,-0.1289 -0.0586,-0.24462 -0.17578,-0.34717 -0.11719,-0.10253 -0.2666,-0.1538 -0.44824,-0.15381 -0.0762,1e-5 -0.28711,0.0352 -0.63281,0.10547 l -0.0791,-0.32519 z"
       style=""
       id="path3076" /><path
       d="m 294.0625,218.02805 -1.71387,5.95898 -0.19336,0.7998 c -0.0176,0.0762 -0.0264,0.14063 -0.0264,0.19336 -1e-5,0.0937 0.0293,0.17579 0.0879,0.2461 0.0469,0.0527 0.10546,0.0791 0.17578,0.0791 0.0762,0 0.17577,-0.0469 0.29883,-0.14063 0.2285,-0.16992 0.53319,-0.52148 0.91406,-1.05468 l 0.29883,0.21093 c -0.40431,0.60938 -0.82032,1.07374 -1.24805,1.39307 -0.42774,0.31934 -0.82325,0.479 -1.18652,0.479 -0.25196,0 -0.44093,-0.063 -0.5669,-0.18896 -0.12598,-0.12598 -0.18897,-0.30908 -0.18896,-0.54932 -10e-6,-0.28711 0.0645,-0.66503 0.19336,-1.13379 l 0.18457,-0.65918 c -0.76759,1.00196 -1.47364,1.70215 -2.11817,2.10059 -0.46289,0.28711 -0.91699,0.43066 -1.3623,0.43066 -0.42774,0 -0.79688,-0.17724 -1.10742,-0.53173 -0.31055,-0.3545 -0.46582,-0.84229 -0.46582,-1.46338 0,-0.93164 0.27978,-1.91455 0.83935,-2.94873 0.55957,-1.03418 1.27002,-1.86181 2.13135,-2.48291 0.67382,-0.49218 1.30956,-0.73828 1.90723,-0.73828 0.35741,0 0.65477,0.0937 0.89209,0.28125 0.23729,0.1875 0.41747,0.49805 0.54052,0.93164 l 0.31641,-1.00196 z m -3.12891,0.45703 c -0.375,0 -0.77344,0.17579 -1.19531,0.52734 -0.59766,0.49805 -1.1294,1.23633 -1.59521,2.21484 -0.46583,0.97852 -0.69874,1.86329 -0.69873,2.6543 -1e-5,0.39844 0.0996,0.71338 0.29882,0.94483 0.19922,0.23144 0.42774,0.34716 0.68555,0.34716 0.63867,0 1.333,-0.47167 2.08301,-1.41504 1.00195,-1.2539 1.50292,-2.54003 1.50293,-3.85839 -1e-5,-0.49804 -0.0967,-0.8584 -0.29004,-1.08106 -0.19337,-0.22265 -0.45704,-0.33398 -0.79102,-0.33398 z"
       style=""
       id="path3078" /><path
       d="m 299.29199,215.84836 -0.68554,2.39062 1.37988,0 -0.14942,0.55371 -1.37109,0 -1.51172,5.18555 c -0.16406,0.55664 -0.24609,0.91699 -0.24609,1.08106 0,0.0996 0.0234,0.17578 0.0703,0.22851 0.0469,0.0527 0.10254,0.0791 0.16699,0.0791 0.14648,0 0.33984,-0.10254 0.58008,-0.30761 0.14062,-0.11719 0.4541,-0.47754 0.94043,-1.08106 l 0.29004,0.21973 c -0.53907,0.78515 -1.04883,1.33887 -1.5293,1.66113 -0.32812,0.22266 -0.65918,0.33398 -0.99316,0.33398 -0.25782,0 -0.46875,-0.0806 -0.63281,-0.24169 -0.16407,-0.16114 -0.2461,-0.36768 -0.2461,-0.61963 0,-0.31641 0.0937,-0.79981 0.28125,-1.4502 l 1.46778,-5.08887 -1.32715,0 0.0879,-0.34277 c 0.64453,-0.17577 1.18066,-0.43798 1.6084,-0.78662 0.42773,-0.34862 0.90527,-0.9536 1.43261,-1.81494 z"
       style=""
       id="path3080" /><path
       d="m 303.63379,214.53879 c 0.24609,1e-5 0.4541,0.085 0.62402,0.25488 0.16992,0.16993 0.25488,0.37794 0.25489,0.62402 -10e-6,0.24025 -0.0864,0.44679 -0.25928,0.61963 -0.17286,0.17286 -0.3794,0.25929 -0.61963,0.25928 -0.24024,10e-6 -0.44678,-0.0864 -0.61963,-0.25928 -0.17285,-0.17284 -0.25928,-0.37938 -0.25928,-0.61963 0,-0.24608 0.085,-0.45409 0.25489,-0.62402 0.16991,-0.16991 0.37792,-0.25487 0.62402,-0.25488 z m 0.11426,3.48926 -1.74024,6.16113 c -0.11719,0.41602 -0.17578,0.66504 -0.17578,0.74707 0,0.0937 0.0278,0.16992 0.0835,0.22851 0.0557,0.0586 0.12158,0.0879 0.19775,0.0879 0.0879,0 0.19336,-0.0469 0.31641,-0.14063 0.33398,-0.26367 0.67089,-0.63867 1.01074,-1.125 l 0.30762,0.20215 c -0.39844,0.60937 -0.86719,1.12207 -1.40625,1.53808 -0.39844,0.31055 -0.7793,0.46582 -1.14258,0.46582 -0.24024,0 -0.43653,-0.0718 -0.58887,-0.21533 -0.15234,-0.14355 -0.22851,-0.32373 -0.22851,-0.54052 0,-0.2168 0.0732,-0.57715 0.21972,-1.08106 l 1.14258,-3.9375 c 0.1875,-0.64452 0.28125,-1.04882 0.28125,-1.21289 0,-0.1289 -0.0454,-0.23437 -0.13623,-0.31641 -0.0908,-0.082 -0.21533,-0.12304 -0.37354,-0.12304 -0.1289,0 -0.3955,0.0322 -0.7998,0.0967 l 0,-0.34278 z"
       style=""
       id="path3082" /><path
       d="m 313.13477,218.02805 -2.87403,9.93164 c -0.12891,0.45703 -0.19336,0.74999 -0.19336,0.8789 0,0.13477 0.0337,0.25049 0.10108,0.34717 0.0674,0.0967 0.15966,0.16845 0.27685,0.21533 0.18164,0.0703 0.41894,0.10547 0.71192,0.10547 l -0.0879,0.3252 -4.20997,0 0.0879,-0.3252 c 0.57421,-0.0469 0.93163,-0.0967 1.07226,-0.14941 0.22265,-0.0879 0.40576,-0.23145 0.54932,-0.43067 0.14355,-0.19922 0.30322,-0.61816 0.479,-1.25683 l 1.21289,-4.33301 c -0.77344,1.13086 -1.49414,1.9248 -2.16211,2.38184 -0.47461,0.32226 -0.91699,0.48339 -1.32715,0.48339 -0.58593,0 -1.02832,-0.23877 -1.32714,-0.7163 -0.29883,-0.47754 -0.44825,-0.99463 -0.44825,-1.55127 0,-0.88477 0.27246,-1.81348 0.81739,-2.78614 0.54492,-0.97265 1.26269,-1.76952 2.15332,-2.39062 0.6914,-0.48632 1.31835,-0.72949 1.88086,-0.72949 0.41601,0 0.75878,0.10108 1.02832,0.30322 0.26952,0.20215 0.47167,0.52588 0.60644,0.97119 l 0.27246,-0.98438 z m -2.00391,1.71386 c -10e-6,-0.37499 -0.11426,-0.68261 -0.34277,-0.92285 -0.22853,-0.24023 -0.50978,-0.36034 -0.84375,-0.36035 -0.71485,1e-5 -1.46778,0.61524 -2.25879,1.8457 -0.79102,1.23048 -1.18653,2.39063 -1.18653,3.48047 0,0.43946 0.0982,0.77344 0.29444,1.00195 0.19628,0.22852 0.43505,0.34278 0.71631,0.34278 0.35741,0 0.76171,-0.19922 1.21289,-0.59766 0.68554,-0.60351 1.25829,-1.37841 1.71826,-2.32471 0.45995,-0.94628 0.68993,-1.76806 0.68994,-2.46533 z"
       style=""
       id="path3084" /><path
       d="m 322.07324,218.23898 -1.52929,5.23828 c -0.22853,0.7793 -0.34278,1.27149 -0.34278,1.47657 0,0.10547 0.019,0.1831 0.0571,0.23291 0.0381,0.0498 0.0893,0.0747 0.15381,0.0747 0.0996,0 0.20947,-0.0454 0.32959,-0.13623 0.12011,-0.0908 0.42333,-0.45263 0.90967,-1.08545 l 0.26367,0.20215 c -0.4629,0.73243 -0.93751,1.27149 -1.42383,1.61719 -0.32227,0.22266 -0.63282,0.33398 -0.93164,0.33398 -0.22852,0 -0.40723,-0.0645 -0.53613,-0.19335 -0.12891,-0.12891 -0.19337,-0.2959 -0.19336,-0.50098 -1e-5,-0.19922 0.0381,-0.46289 0.11426,-0.79102 0.0937,-0.43359 0.36034,-1.37695 0.7998,-2.83007 -0.9961,1.63476 -1.82959,2.76269 -2.50049,3.38378 -0.6709,0.6211 -1.29346,0.93164 -1.86767,0.93164 -0.26954,0 -0.49805,-0.0937 -0.68555,-0.28125 -0.1875,-0.1875 -0.28125,-0.4248 -0.28125,-0.71191 0,-0.43945 0.12891,-1.11328 0.38672,-2.02148 l 0.76465,-2.71582 c 0.18749,-0.65039 0.28124,-1.05468 0.28125,-1.21289 -10e-6,-0.0703 -0.0249,-0.13037 -0.0747,-0.18018 -0.0498,-0.0498 -0.10401,-0.0747 -0.1626,-0.0747 -0.12305,1e-5 -0.24609,0.0439 -0.36914,0.13184 -0.12305,0.0879 -0.40137,0.41309 -0.83496,0.97558 l -0.27246,-0.19335 c 0.43945,-0.67969 0.90527,-1.18066 1.39746,-1.50293 0.375,-0.25195 0.7207,-0.37793 1.03711,-0.37793 0.21679,0 0.39404,0.0688 0.53174,0.20654 0.13769,0.1377 0.20654,0.31495 0.20654,0.53174 0,0.31641 -0.11719,0.88184 -0.35156,1.69629 l -0.82617,2.83886 c -0.22852,0.77344 -0.34278,1.2627 -0.34278,1.46778 0,0.11133 0.0366,0.20068 0.10987,0.26806 0.0732,0.0674 0.17138,0.10108 0.29443,0.10108 0.19336,0 0.44531,-0.0967 0.75586,-0.29004 0.31054,-0.19336 0.72509,-0.62256 1.24365,-1.2876 0.51855,-0.66504 0.94629,-1.28906 1.28321,-1.87207 0.3369,-0.583 0.69579,-1.51025 1.07666,-2.78174 l 0.19335,-0.66797 z"
       style=""
       id="path3086" /><path
       d="m 324.74512,222.66867 c -0.041,0.29297 -0.0615,0.53614 -0.0615,0.72949 0,0.52149 0.18457,0.96534 0.55371,1.33155 0.36914,0.36621 0.81738,0.54931 1.34473,0.54931 0.42187,0 0.82763,-0.0864 1.21729,-0.25928 0.38964,-0.17285 0.96825,-0.55517 1.73584,-1.14697 l 0.18457,0.25489 c -1.38868,1.37695 -2.7129,2.06542 -3.97266,2.06542 -0.85547,0 -1.5,-0.26953 -1.93359,-0.80859 -0.4336,-0.53906 -0.65039,-1.13379 -0.65039,-1.78418 0,-0.87304 0.26953,-1.7666 0.80859,-2.68066 0.53906,-0.91406 1.21582,-1.62451 2.03027,-2.13135 0.81445,-0.50683 1.65234,-0.76025 2.51367,-0.76025 0.62109,0 1.08105,0.12598 1.37989,0.37793 0.29882,0.25196 0.44823,0.55078 0.44824,0.89648 -10e-6,0.48633 -0.19337,0.95215 -0.58008,1.39746 -0.50977,0.58008 -1.25977,1.04883 -2.25,1.40625 -0.65625,0.24024 -1.5791,0.42774 -2.76855,0.5625 z m 0.0615,-0.43066 c 0.86719,-0.0996 1.57324,-0.26953 2.11816,-0.50977 0.7207,-0.32226 1.26123,-0.70751 1.62159,-1.15576 0.36034,-0.44824 0.54052,-0.87451 0.54052,-1.27881 0,-0.24609 -0.0776,-0.4453 -0.23291,-0.59766 -0.15528,-0.15233 -0.37647,-0.2285 -0.66357,-0.22851 -0.59766,1e-5 -1.23194,0.31788 -1.90283,0.95361 -0.6709,0.63575 -1.16456,1.57471 -1.48096,2.8169 z"
       style=""
       id="path3088" /></g><g
     style="font-size:18px;font-style:italic;font-variant:normal;font-weight:normal;font-stretch:normal;text-align:start;line-height:125%;writing-mode:lr-tb;text-anchor:start;fill:#000000;fill-opacity:1;stroke:none;display:inline;font-family:Times New Roman;-inkscape-font-specification:Times New Roman Italic"
     id="text2959-1-8"><path
       d="m 68.910389,3.4520912 -0.887695,3.8583985 -0.316407,0 -0.03516,-0.9667969 C 67.641823,5.9921399 67.57444,5.6786637 67.468983,5.4032631 67.363503,5.127883 67.2053,4.8891137 66.994373,4.6869545 66.783425,4.4848172 66.516824,4.3266143 66.194569,4.2123451 65.872293,4.0980989 65.514872,4.04097 65.122303,4.0409584 c -1.048836,1.16e-5 -1.965827,0.2871207 -2.750977,0.8613281 -1.001958,0.7324319 -1.787113,1.7666106 -2.355468,3.1025391 -0.468754,1.101569 -0.703128,2.2177784 -0.703125,3.3486324 -3e-6,1.1543 0.33691,2.075686 1.010742,2.764161 0.673823,0.688477 1.549799,1.032715 2.62793,1.032714 0.814445,1e-6 1.539542,-0.18164 2.175293,-0.544921 0.635732,-0.36328 1.226064,-0.92285 1.770996,-1.678711 l 0.413086,0 c -0.644542,1.025392 -1.359385,1.779786 -2.144532,2.263183 -0.785164,0.483399 -1.725593,0.725098 -2.821289,0.725098 -0.972661,0 -1.833988,-0.203614 -2.583984,-0.61084 -0.750003,-0.407226 -1.321291,-0.979979 -1.713867,-1.718262 -0.39258,-0.738278 -0.588869,-1.532223 -0.588867,-2.381836 -2e-6,-1.3007752 0.348631,-2.5663989 1.045898,-3.7968747 0.697263,-1.2304592 1.653805,-2.1972552 2.869629,-2.9003906 1.215814,-0.7031131 2.441887,-1.0546753 3.678223,-1.0546875 0.580068,1.22e-5 1.230458,0.1377074 1.951171,0.413086 0.316396,0.1171991 0.544911,0.1757928 0.685547,0.1757812 0.140614,1.16e-5 0.26366,-0.029285 0.369141,-0.087891 0.105457,-0.058582 0.281238,-0.225574 0.527344,-0.5009766 z"
       style=""
       id="path3091" /><path
       d="m 69.209217,8.1806068 3.032227,-0.4921875 -1.265625,4.2714847 c 1.025387,-1.751948 1.957026,-2.9765561 2.794922,-3.6738284 0.474603,-0.3984298 0.861321,-0.5976483 1.160156,-0.5976563 0.193352,8e-6 0.345696,0.057137 0.457031,0.1713868 0.111321,0.1142654 0.166985,0.2797926 0.166992,0.496582 -7e-6,0.3867256 -0.09962,0.7558659 -0.298828,1.1074219 -0.140632,0.2636778 -0.34278,0.3955136 -0.606445,0.3955078 -0.134772,5.8e-6 -0.250495,-0.043939 -0.347168,-0.131836 -0.09669,-0.087885 -0.156744,-0.2226501 -0.180176,-0.4042968 -0.01172,-0.1113217 -0.03809,-0.1845638 -0.0791,-0.2197266 -0.04688,-0.046868 -0.102544,-0.070306 -0.166992,-0.070312 -0.09962,6.6e-6 -0.193365,0.023444 -0.28125,0.070312 -0.152349,0.082038 -0.383794,0.3105531 -0.694336,0.6855469 -0.486332,0.5742237 -1.013675,1.3183637 -1.582031,2.2324217 -0.246096,0.386722 -0.457034,0.823245 -0.632812,1.30957 -0.246096,0.667971 -0.386721,1.069338 -0.421875,1.204102 l -0.28125,1.107422 -1.344727,0 1.625977,-5.458008 c 0.187497,-0.6328063 0.281247,-1.0839777 0.28125,-1.3535155 -3e-6,-0.1054619 -0.04395,-0.1933524 -0.131836,-0.2636719 -0.11719,-0.093743 -0.272463,-0.1406178 -0.465821,-0.140625 -0.123048,7.2e-6 -0.348634,0.026374 -0.676757,0.079102 z"
       style=""
       id="path3093" /><path
       d="m 83.588123,10.439396 c -8e-6,0.87891 -0.232918,1.749027 -0.69873,2.610351 -0.465828,0.86133 -1.114753,1.543947 -1.946777,2.047852 -0.832037,0.503906 -1.64063,0.755859 -2.425782,0.755859 -0.802737,0 -1.457521,-0.256347 -1.964355,-0.769043 -0.506837,-0.512694 -0.760255,-1.176267 -0.760254,-1.990722 -10e-7,-0.861325 0.247558,-1.725582 0.742676,-2.592774 0.495115,-0.8671811 1.157224,-1.5527273 1.986328,-2.0566403 0.829097,-0.5038985 1.630366,-0.7558514 2.403808,-0.7558594 0.773431,8e-6 1.410638,0.2548906 1.911621,0.7646485 0.500969,0.5097723 0.751457,1.171881 0.751465,1.9863282 z M 82.129139,9.8329506 C 82.129132,9.2880351 81.995831,8.870555 81.729237,8.5805092 81.462629,8.2904775 81.118391,8.1454581 80.696522,8.1454506 c -0.861333,7.5e-6 -1.653813,0.6167061 -2.377442,1.8500976 -0.723635,1.2334028 -1.085451,2.4594758 -1.085449,3.6782228 -2e-6,0.556642 0.140623,0.985841 0.421875,1.287598 0.281247,0.301758 0.635739,0.452637 1.063477,0.452636 0.826167,1e-6 1.601069,-0.613768 2.324707,-1.841308 0.723626,-1.227536 1.085442,-2.474117 1.085449,-3.7397464 z"
       style=""
       id="path3095" /><path
       d="m 91.805897,7.6884193 0.606445,6.5917967 c 1.019522,-1.19531 1.833974,-2.317379 2.443359,-3.366211 0.357411,-0.615229 0.536122,-1.0605408 0.536133,-1.3359372 C 95.391823,9.4491677 95.362526,9.33491 95.303944,9.2352943 95.280495,9.1825664 95.18821,9.1049298 95.027088,9.0023842 94.865945,8.8998519 94.753152,8.7943832 94.688709,8.6859779 94.624246,8.5775866 94.592019,8.461864 94.59203,8.33881 c -1.1e-5,-0.1816332 0.06737,-0.3354416 0.202148,-0.4614258 0.134755,-0.1259687 0.307606,-0.1889569 0.518555,-0.1889649 0.240223,8e-6 0.443836,0.089363 0.61084,0.2680664 0.16698,0.1787185 0.250476,0.4174878 0.250488,0.7163086 -1.2e-5,0.3046942 -0.04396,0.5888736 -0.131836,0.8525391 -0.175793,0.5039116 -0.518566,1.1543016 -1.02832,1.9511716 -0.621104,0.955082 -1.26124,1.841311 -1.920411,2.658692 -0.659187,0.817383 -1.14991,1.390137 -1.472168,1.718261 l -0.325195,0 -0.571289,-6.0820308 -3.629883,6.0820308 -0.386718,0 C 86.667222,13.351508 86.541246,11.3769 86.330311,9.9296303 86.242418,9.326121 86.095934,8.9306136 85.890858,8.7431068 85.744372,8.6083483 85.521716,8.5409655 85.222889,8.5409584 c -0.169923,7.1e-6 -0.386719,0.017585 -0.650391,0.052734 l 0,-0.3164063 2.522461,-0.5888672 c 0.35156,0.9785226 0.580075,2.4814507 0.685547,4.5087887 0.03515,0.767581 0.06445,1.250979 0.08789,1.450196 l 3.612304,-5.9589847 z"
       style=""
       id="path3097" /><path
       d="m 100.26097,7.6884193 -1.16894,3.9990237 c 1.0957,-1.63476 1.93505,-2.7099545 2.51807,-3.2255862 0.583,-0.5156173 1.14403,-0.7734295 1.6831,-0.7734375 0.29296,8e-6 0.53466,0.096688 0.7251,0.2900391 0.19042,0.1933669 0.28564,0.4453197 0.28564,0.7558594 0,0.351569 -0.085,0.8203186 -0.25488,1.4062502 l -1.07226,3.700195 c -0.12306,0.427736 -0.18458,0.688478 -0.18458,0.782227 0,0.08203 0.0234,0.150879 0.0703,0.206543 0.0469,0.05566 0.0967,0.0835 0.14941,0.0835 0.0703,0 0.15527,-0.03809 0.25488,-0.114258 0.31054,-0.246093 0.65039,-0.621092 1.01954,-1.125 l 0.27246,0.166992 c -0.54493,0.779298 -1.06056,1.335938 -1.54688,1.669922 -0.33985,0.228515 -0.64454,0.342773 -0.91406,0.342773 -0.2168,0 -0.38965,-0.06592 -0.51856,-0.197754 -0.12891,-0.131835 -0.19336,-0.309081 -0.19336,-0.531738 0,-0.281249 0.0996,-0.764647 0.29883,-1.450195 l 1.01953,-3.533203 c 0.1289,-0.4394474 0.19336,-0.7822205 0.19336,-1.0283205 0,-0.1171809 -0.0381,-0.2123956 -0.11425,-0.2856446 -0.0762,-0.073235 -0.16993,-0.1098563 -0.28125,-0.1098632 -0.16407,6.9e-6 -0.36036,0.070319 -0.58887,0.2109375 -0.4336,0.2636783 -0.88477,0.6987364 -1.35352,1.3051758 -0.46875,0.60645 -0.963867,1.381352 -1.485349,2.324707 -0.275393,0.498049 -0.503908,1.042971 -0.685546,1.634766 l -0.439454,1.450195 -1.318359,0 1.599609,-5.501953 c 0.187498,-0.6621034 0.281248,-1.0605405 0.28125,-1.1953127 -2e-6,-0.1288994 -0.05127,-0.2416923 -0.153808,-0.3383789 -0.102541,-0.096673 -0.229982,-0.1450124 -0.382324,-0.1450196 -0.07031,7.2e-6 -0.193361,0.011726 -0.369141,0.035156 l -0.333984,0.052734 -0.05273,-0.3164063 z"
       style=""
       id="path3099" /></g><g
     style="font-size:18px;font-style:italic;font-variant:normal;font-weight:normal;font-stretch:normal;text-align:start;line-height:125%;writing-mode:lr-tb;text-anchor:start;fill:#000000;fill-opacity:1;stroke:none;display:inline;font-family:Times New Roman;-inkscape-font-specification:Times New Roman Italic"
     id="text2959-1-4-2"><path
       d="m 189.33875,4.6649818 -1.40625,4.7197266 1.56445,0 c 0.70312,6.6e-6 1.22899,-0.1083918 1.57763,-0.3251953 0.34863,-0.2167898 0.70752,-0.6796799 1.07667,-1.3886719 l 0.33398,0 -1.23926,4.3417968 -0.35156,0 c 0.0879,-0.351558 0.13183,-0.641597 0.13184,-0.870117 -1e-5,-0.357417 -0.11866,-0.634272 -0.35596,-0.830567 -0.23731,-0.196283 -0.68116,-0.294427 -1.33154,-0.294433 l -1.58204,0 -1.03711,3.594726 c -0.1875,0.638674 -0.28125,1.063478 -0.28125,1.274415 0,0.216797 0.0806,0.383789 0.2417,0.500976 0.16113,0.117188 0.55518,0.19629 1.18213,0.237305 l -0.10547,0.325195 -4.71093,0 0.11425,-0.325195 c 0.45704,-0.01172 0.76172,-0.05273 0.91407,-0.123047 0.23437,-0.09961 0.40722,-0.234374 0.51855,-0.404297 0.1582,-0.240233 0.3457,-0.73535 0.5625,-1.485352 l 2.10059,-7.1806636 c 0.16992,-0.580068 0.25488,-1.0341691 0.25488,-1.3623047 0,-0.1523327 -0.0381,-0.2827037 -0.11426,-0.3911133 -0.0762,-0.108387 -0.18897,-0.1889533 -0.33838,-0.2416992 -0.14941,-0.052723 -0.44678,-0.07909 -0.89209,-0.079102 l 0.10547,-0.3251954 9.2461,0 -0.87891,3.0146485 -0.33398,0 c 0.0644,-0.363272 0.0967,-0.6620998 0.0967,-0.8964844 -2e-5,-0.3867086 -0.10695,-0.6928606 -0.32081,-0.918457 -0.21387,-0.225575 -0.4878,-0.3852428 -0.82177,-0.4790039 -0.23439,-0.058582 -0.7588,-0.087879 -1.57325,-0.087891 z"
       style=""
       id="path3102" /><path
       d="m 199.84167,3.4520912 -3.00585,10.4589848 c -0.14649,0.521485 -0.21973,0.840821 -0.21973,0.958007 0,0.08789 0.0278,0.161134 0.0835,0.219727 0.0557,0.05859 0.12451,0.08789 0.20655,0.08789 0.11132,0 0.23144,-0.0498 0.36035,-0.149414 0.30468,-0.240234 0.62402,-0.612304 0.95801,-1.116211 l 0.26367,0.272461 c -0.55664,0.785157 -1.06934,1.333008 -1.53809,1.643554 -0.3457,0.222656 -0.67383,0.333984 -0.98437,0.333985 -0.22266,-1e-6 -0.40869,-0.07617 -0.55811,-0.228516 -0.14941,-0.152344 -0.22412,-0.328125 -0.22412,-0.527344 0,-0.210937 0.0937,-0.64453 0.28125,-1.300781 l 2.38184,-8.2441407 c 0.19335,-0.6738173 0.29003,-1.0605357 0.29004,-1.1601562 -10e-6,-0.1406136 -0.0557,-0.2563362 -0.167,-0.347168 -0.11133,-0.090809 -0.28418,-0.1362187 -0.51855,-0.1362304 -0.13477,1.17e-5 -0.33985,0.020519 -0.61523,0.061523 l 0,-0.3251953 z"
       style=""
       id="path3104" /><path
       d="m 203.50671,4.5067787 c 0.24609,1.15e-5 0.4541,0.084972 0.62403,0.2548828 0.16991,0.1699329 0.25488,0.3779405 0.25488,0.6240235 0,0.2402447 -0.0864,0.4467874 -0.25928,0.6196289 -0.17285,0.1728613 -0.3794,0.259287 -0.61963,0.2592773 -0.24023,9.7e-6 -0.44678,-0.086416 -0.61963,-0.2592773 -0.17285,-0.1728415 -0.25928,-0.3793842 -0.25927,-0.6196289 -1e-5,-0.246083 0.085,-0.4540906 0.25488,-0.6240235 0.16992,-0.1699105 0.37793,-0.2548713 0.62402,-0.2548828 z m 0.11426,3.4892578 -1.74023,6.1611325 c -0.11719,0.416017 -0.17579,0.665041 -0.17578,0.747071 -1e-5,0.09375 0.0278,0.169922 0.0835,0.228515 0.0557,0.0586 0.12158,0.08789 0.19776,0.08789 0.0879,10e-7 0.19335,-0.04687 0.3164,-0.140625 0.33398,-0.263671 0.6709,-0.63867 1.01074,-1.125 l 0.30762,0.202148 c -0.39844,0.609377 -0.86719,1.122071 -1.40625,1.538086 -0.39844,0.310547 -0.7793,0.46582 -1.14258,0.465821 -0.24023,-1e-6 -0.43652,-0.07178 -0.58886,-0.215332 -0.15235,-0.143555 -0.22852,-0.323731 -0.22852,-0.540528 0,-0.216796 0.0732,-0.577147 0.21973,-1.081054 l 1.14258,-3.9375 c 0.18749,-0.6445255 0.28124,-1.048822 0.28125,-1.2128911 -1e-5,-0.1288993 -0.0454,-0.234368 -0.13624,-0.3164062 -0.0908,-0.082024 -0.21533,-0.1230397 -0.37353,-0.1230469 -0.12891,7.2e-6 -0.39551,0.032234 -0.7998,0.09668 l 0,-0.3427735 z"
       style=""
       id="path3106" /><path
       d="m 208.44617,7.9960365 -1.16895,3.9990235 c 1.0957,-1.63476 1.93506,-2.7099543 2.51807,-3.225586 0.583,-0.5156173 1.14403,-0.7734295 1.6831,-0.7734375 0.29297,8e-6 0.53466,0.096688 0.7251,0.2900391 0.19042,0.1933668 0.28564,0.4453197 0.28565,0.7558594 -1e-5,0.351569 -0.085,0.8203186 -0.25489,1.40625 l -1.07226,3.700195 c -0.12306,0.427736 -0.18458,0.688478 -0.18457,0.782227 -1e-5,0.08203 0.0234,0.15088 0.0703,0.206543 0.0469,0.05566 0.0967,0.0835 0.14941,0.0835 0.0703,10e-7 0.15527,-0.03809 0.25489,-0.114258 0.31054,-0.246093 0.65038,-0.621092 1.01953,-1.125 l 0.27246,0.166992 c -0.54493,0.779298 -1.06056,1.335938 -1.54688,1.669922 -0.33985,0.228516 -0.64453,0.342773 -0.91406,0.342774 -0.2168,-1e-6 -0.38965,-0.06592 -0.51855,-0.197754 -0.12892,-0.131836 -0.19337,-0.309082 -0.19336,-0.531739 -1e-5,-0.281249 0.0996,-0.764647 0.29883,-1.450195 l 1.01953,-3.533203 c 0.1289,-0.439447 0.19335,-0.7822203 0.19336,-1.0283203 -1e-5,-0.1171809 -0.0381,-0.2123956 -0.11426,-0.2856446 -0.0762,-0.073235 -0.16993,-0.1098563 -0.28125,-0.1098633 -0.16407,7e-6 -0.36036,0.070319 -0.58887,0.2109375 -0.4336,0.2636784 -0.88477,0.6987365 -1.35351,1.3051757 -0.46876,0.60645 -0.96388,1.381352 -1.48536,2.324707 -0.27539,0.49805 -0.5039,1.042971 -0.68554,1.634766 l -0.43946,1.450195 -1.31836,0 1.59961,-5.501953 c 0.1875,-0.6621032 0.28125,-1.0605403 0.28125,-1.1953125 0,-0.1288995 -0.0513,-0.2416923 -0.15381,-0.3383789 -0.10254,-0.096673 -0.22998,-0.1450124 -0.38232,-0.1450196 -0.0703,7.2e-6 -0.19336,0.011726 -0.36914,0.035156 l -0.33398,0.052734 -0.0527,-0.3164063 z"
       style=""
       id="path3108" /><path
       d="m 218.14929,5.816349 -0.68554,2.390625 1.37988,0 -0.14942,0.553711 -1.37109,0 -1.51172,5.185547 c -0.16406,0.556642 -0.24609,0.916993 -0.24609,1.081055 0,0.09961 0.0234,0.175782 0.0703,0.228515 0.0469,0.05274 0.10254,0.0791 0.16699,0.0791 0.14648,0 0.33984,-0.102539 0.58008,-0.307617 0.14062,-0.117187 0.4541,-0.477538 0.94043,-1.081055 l 0.29004,0.219726 c -0.53907,0.785158 -1.04883,1.338868 -1.5293,1.661133 -0.32812,0.222656 -0.65918,0.333984 -0.99316,0.333985 -0.25782,-1e-6 -0.46875,-0.08057 -0.63281,-0.2417 -0.16407,-0.161132 -0.2461,-0.367675 -0.2461,-0.619629 0,-0.316405 0.0937,-0.799803 0.28125,-1.450195 l 1.46778,-5.088867 -1.32715,0 0.0879,-0.3427735 c 0.64453,-0.1757735 1.18066,-0.4379803 1.6084,-0.7866211 0.42773,-0.3486241 0.90527,-0.953604 1.43261,-1.8149414 z"
       style=""
       id="path3110" /></g></g></svg>